<svg width="1409" height="1383" viewBox="0 0 1409 1383" fill="none" xmlns="http://www.w3.org/2000/svg">
<rect width="1379" height="1379" rx="230" fill="#5BC0EC"/>
<path d="M138 1035.5C120.879 1035.5 107 1049.38 107 1066.5C107 1083.62 120.879 1097.5 138 1097.5V1035.5ZM1329.92 1088.42C1342.03 1076.31 1342.03 1056.69 1329.92 1044.58L1132.64 847.297C1120.53 835.191 1100.9 835.191 1088.8 847.297C1076.69 859.403 1076.69 879.031 1088.8 891.138L1264.16 1066.5L1088.8 1241.86C1076.69 1253.97 1076.69 1273.6 1088.8 1285.7C1100.9 1297.81 1120.53 1297.81 1132.64 1285.7L1329.92 1088.42ZM138 1097.5L1308 1097.5V1035.5L138 1035.5V1097.5Z" fill="#050505"/>
<path d="M211.5 1187.5C211.5 1204.62 225.379 1218.5 242.5 1218.5C259.621 1218.5 273.5 1204.62 273.5 1187.5H211.5ZM264.42 82.352C252.314 70.2458 232.686 70.2458 220.58 82.352L23.2969 279.635C11.1906 291.741 11.1906 311.369 23.2969 323.475C35.4032 335.582 55.0313 335.582 67.1375 323.475L242.5 148.113L417.862 323.475C429.969 335.582 449.597 335.582 461.703 323.475C473.809 311.369 473.809 291.741 461.703 279.635L264.42 82.352ZM273.5 1187.5L273.5 104.272H211.5L211.5 1187.5H273.5Z" fill="#050505"/>
<path d="M316 781.5H593.5L734.5 398L880 781.5H1215.5" stroke="#050505" stroke-width="64"/>
<path d="M1029.5 255V475.5H968L1069.5 590L1162 475.5H1100.5V255H1029.5Z" fill="#FF0C0C" stroke="#FF0C0C" stroke-width="41"/>
</svg>
