<svg width="898" height="855" viewBox="0 0 898 855" fill="none" xmlns="http://www.w3.org/2000/svg">
<rect width="883" height="855" rx="143" fill="#5BC0EC"/>
<path d="M122.5 814C122.5 821.456 128.544 827.5 136 827.5C143.456 827.5 149.5 821.456 149.5 814H122.5ZM145.546 57.454C140.274 52.182 131.726 52.182 126.454 57.454L40.5406 143.368C35.2685 148.64 35.2685 157.187 40.5406 162.459C45.8127 167.732 54.3604 167.732 59.6325 162.459L136 86.0919L212.368 162.459C217.64 167.732 226.187 167.732 231.459 162.459C236.731 157.187 236.731 148.64 231.459 143.368L145.546 57.454ZM149.5 814L149.5 67H122.5L122.5 814H149.5Z" fill="white"/>
<path d="M68 725.5C60.5442 725.5 54.5 731.544 54.5 739C54.5 746.456 60.5442 752.5 68 752.5V725.5ZM824.546 748.546C829.818 743.274 829.818 734.726 824.546 729.454L738.632 643.541C733.36 638.269 724.813 638.269 719.541 643.541C714.268 648.813 714.268 657.36 719.541 662.632L795.908 739L719.541 815.368C714.268 820.64 714.268 829.187 719.541 834.459C724.813 839.731 733.36 839.731 738.632 834.459L824.546 748.546ZM68 752.5L815 752.5V725.5L68 725.5V752.5Z" fill="white"/>
<circle cx="136" cy="739" r="42" fill="white"/>
<circle cx="353" cy="352" r="42" fill="white"/>
<circle cx="469" cy="482" r="42" fill="white"/>
<circle cx="680" cy="204" r="42" fill="white"/>
<path d="M197 571L337.175 350.076C343.845 339.565 359.178 339.551 365.867 350.049L449.717 481.652C456.123 491.706 470.618 492.215 477.714 482.636L668.981 224.425C675.882 215.109 689.879 215.282 696.548 224.765L737.5 283" stroke="#FFFEFF" stroke-width="27" stroke-linecap="round"/>
<path d="M730.877 490.271C734.794 494.246 741.206 494.246 745.123 490.271L859.795 373.894C866.023 367.573 861.545 356.875 852.672 356.875H623.328C614.455 356.875 609.977 367.573 616.205 373.894L730.877 490.271Z" fill="#050505"/>
<path d="M701.605 426.667H771.648V594.653C771.648 600.654 764.591 603.873 760.059 599.939L703.327 550.686C702.233 549.737 701.605 548.359 701.605 546.911V426.667Z" fill="#050505"/>
</svg>
